HIERARCHY
ROOT Hips
{
	OFFSET 14.305135 82.211266 -3.793973
	CHANNELS 6 Xposition Yposition Zposition Xrotation Yrotation Zrotation
	JOINT Chest
	{
		OFFSET -0.109982 13.634331 0.497046
		CHANNELS 3 Xrotation Yrotation Zrotation
		JOINT Chest2
		{
			OFFSET -7.725455 19.539009 4.196554
			CHANNELS 3 Xrotation Yrotation Zrotation
			JOINT Chest3
			{
				OFFSET -4.368665 14.162788 1.774842
				CHANNELS 3 Xrotation Yrotation Zrotation
				JOINT Neck
				{
					OFFSET -4.079538 16.495239 3.143321
					CHANNELS 3 Xrotation Yrotation Zrotation
					JOINT Head
					{
						OFFSET -5.162426 9.091736 0.719285
						CHANNELS 3 Xrotation Yrotation Zrotation
						End Site
						{
							OFFSET -5.100909 9.127670 0.702954
						}
					}
				}
				JOINT LeftCollar
				{
					OFFSET -3.284260 11.664352 7.413554
					CHANNELS 3 Xrotation Yrotation Zrotation
					JOINT LeftUpArm
					{
						OFFSET 14.381813 -2.891312 9.659357
						CHANNELS 3 Xrotation Yrotation Zrotation
						JOINT LeftLowArm
						{
							OFFSET 9.414685 -32.086929 4.639091
							CHANNELS 3 Xrotation Yrotation Zrotation
							JOINT LeftHand
							{
								OFFSET -2.276762 -29.662453 3.987835
								CHANNELS 3 Xrotation Yrotation Zrotation
								End Site
								{
									OFFSET -0.497595 -6.482903 0.871567
								}
							}
						}
					}
				}
				JOINT RightCollar
				{
					OFFSET -7.695208 11.938583 0.250633
					CHANNELS 3 Xrotation Yrotation Zrotation
					JOINT RightUpArm
					{
						OFFSET -0.319857 -3.348297 -17.238995
						CHANNELS 3 Xrotation Yrotation Zrotation
						JOINT RightLowArm
						{
							OFFSET 3.495160 -31.534637 -11.536282
							CHANNELS 3 Xrotation Yrotation Zrotation
							JOINT RightHand
							{
								OFFSET -4.239747 -29.628792 -2.261477
								CHANNELS 3 Xrotation Yrotation Zrotation
								End Site
								{
									OFFSET -0.926640 -6.475670 -0.494265
								}
							}
						}
					}
				}
			}
		}
	}
	JOINT LeftUpLeg
	{
		OFFSET 4.916314 -0.278717 8.727618
		CHANNELS 3 Xrotation Yrotation Zrotation
		JOINT LeftLowLeg
		{
			OFFSET -33.333611 -19.512733 27.424665
			CHANNELS 3 Xrotation Yrotation Zrotation
			JOINT LeftFoot
			{
				OFFSET 20.326534 -30.292225 -25.880135
				CHANNELS 3 Xrotation Yrotation Zrotation
				JOINT LeftToe
				{
					OFFSET -6.757626 -22.230665 4.437552
					CHANNELS 3 Xrotation Yrotation Zrotation
					End Site
					{
						OFFSET -15.562225 -12.114210 13.062234
					}
				}
			}
		}
	}
	JOINT RightUpLeg
	{
		OFFSET -4.916315 0.278519 -8.727629
		CHANNELS 3 Xrotation Yrotation Zrotation
		JOINT RightLowLeg
		{
			OFFSET -25.570522 -39.807476 2.350664
			CHANNELS 3 Xrotation Yrotation Zrotation
			JOINT RightFoot
			{
				OFFSET 40.857994 -5.237000 -17.429272
				CHANNELS 3 Xrotation Yrotation Zrotation
				JOINT RightToe
				{
					OFFSET 22.554726 -6.462975 -3.011885
					CHANNELS 3 Xrotation Yrotation Zrotation
					End Site
					{
						OFFSET 13.772686 -19.215519 0.795568
					}
				}
			}
		}
	}
}
MOTION
Frames: 10
Frame Time: 0.033333
27.359308 43.849861 -26.703003 2.168092 13.218334 12.206679 1.968864 5.075654 -23.493517 0.191920 4.027881 -9.807452 9.798400 -13.265359 3.437377 10.942330 21.721800 -15.367828 0.000001 0.000000 0.000000 -17.268224 -32.241966 -2.999968 -67.108166 -15.689189 -61.773453 -44.866068 14.672433 -0.059550 -0.000001 0.000002 0.000001 32.366976 11.150501 -32.306443 34.833299 16.937273 -72.913601 29.875305 -18.144630 -27.204457 0.000000 0.000004 0.000001 -24.468499 22.854069 83.664592 -53.375828 -7.757460 32.680351 44.193141 -30.486290 -1.724108 -0.000004 0.000000 -0.000001 2.085103 -1.181832 -47.337801 -19.082471 -24.827080 39.943062 31.760506 10.460613 -21.502129 0.000000 0.000003 0.000006 
27.378334 43.790237 -26.939075 1.293252 13.711611 12.381291 2.981558 4.962711 -22.902883 -0.099622 3.973816 -10.204005 10.485128 -13.859027 3.233471 10.890487 21.714187 -15.468965 0.000003 -0.000003 0.000006 -16.778447 -31.794155 -2.752301 -67.009415 -15.790436 -62.353418 -45.952597 14.361526 -1.031748 0.000002 -0.000001 0.000000 33.427246 11.954013 -32.863756 34.435106 17.330046 -72.693191 31.601940 -18.321322 -27.698219 -0.000005 0.000002 -0.000001 -24.451071 22.831823 82.741943 -54.107772 -8.197736 33.159988 44.294207 -30.629246 -1.876507 -0.000002 0.000002 0.000001 2.017270 -1.230181 -47.809620 -20.052373 -25.983751 39.959236 31.859779 10.324447 -22.854672 0.000001 0.000001 0.000004 
27.416328 43.702385 -27.188536 0.449494 13.620009 12.760359 3.589057 4.915568 -22.830590 -0.166809 4.131237 -10.521220 10.781805 -14.014737 3.224031 10.961088 22.111923 -15.627978 0.000004 -0.000002 0.000002 -15.816097 -31.096407 -2.445050 -67.236560 -16.274618 -63.104589 -47.215633 13.423833 -1.261628 0.000000 0.000000 0.000000 33.990156 12.139982 -32.882050 34.619613 17.983796 -72.564661 35.255230 -18.644968 -26.142494 -0.000002 -0.000001 -0.000002 -23.911586 22.947571 82.439775 -54.350643 -8.245868 33.065185 44.900243 -30.777331 -1.437588 -0.000003 0.000001 -0.000003 1.942819 -1.127271 -48.615395 -19.758286 -25.822205 40.302532 31.620050 10.288446 -22.473032 0.000001 0.000004 0.000004 
27.448090 43.623848 -27.430580 0.400778 13.698045 12.786556 3.868932 4.840033 -22.573232 -0.514089 4.037601 -10.795450 11.171933 -14.117558 3.339685 10.610341 22.098184 -16.060240 0.000002 -0.000002 0.000004 -15.408167 -30.878910 -1.965460 -67.897749 -16.890115 -63.220941 -48.867364 12.163032 -0.276541 0.000001 -0.000001 0.000001 34.363952 12.790378 -32.606278 35.729952 17.928470 -72.328138 38.106329 -18.598192 -25.189895 0.000003 -0.000001 0.000000 -23.744121 22.944680 82.530665 -54.045094 -8.091758 32.712993 44.758735 -30.459468 -1.199783 0.000001 0.000001 -0.000001 1.813909 -0.903184 -48.893585 -20.090687 -26.109472 40.234589 30.037277 9.503475 -23.498475 -0.000001 0.000002 0.000004 
27.494270 43.533653 -27.674564 0.754339 13.585134 13.022796 3.828639 4.772531 -22.444965 -0.670886 4.113642 -11.008247 11.333639 -13.906716 3.438363 9.931291 21.818775 -16.742291 0.000002 0.000003 -0.000001 -14.840801 -30.812827 -1.366691 -69.714921 -17.554368 -63.505576 -49.942367 10.931165 0.234237 0.000004 -0.000001 0.000001 34.089191 12.432207 -31.752720 37.374187 18.287160 -72.853885 41.557173 -18.403091 -23.653618 -0.000005 -0.000001 0.000001 -23.796639 22.876761 82.612607 -53.304828 -7.904215 32.412584 43.992617 -29.998976 -1.390233 0.000000 0.000003 -0.000005 2.069165 -1.006071 -49.310213 -19.778075 -25.685633 40.177495 32.151125 10.256460 -23.236457 -0.000000 0.000002 0.000004 
27.526970 43.439602 -27.910564 0.963565 14.207949 13.155667 3.927173 4.688665 -22.084932 -0.749622 4.130674 -11.081977 11.328283 -14.643463 3.322963 10.386479 22.561616 -17.281774 0.000002 0.000001 0.000004 -14.208541 -30.503604 -1.297479 -70.454576 -17.819139 -64.285501 -49.939741 10.721746 -0.440711 -0.000001 0.000000 0.000000 33.635294 12.144370 -31.240486 37.997801 18.617409 -73.282739 43.374430 -18.523599 -23.799545 0.000005 0.000002 0.000003 -24.198042 22.581884 82.209332 -53.403326 -8.097277 32.796065 44.318109 -30.349949 -1.423411 -0.000003 0.000000 0.000000 2.557377 -1.353444 -49.668958 -20.361962 -26.304903 40.138273 31.642364 9.477410 -26.057624 -0.000000 0.000003 0.000001 
27.552969 43.349270 -28.142181 1.155851 14.596034 13.224050 4.124552 4.621351 -21.792951 -0.967083 4.016656 -11.226785 11.591042 -14.860632 3.381789 10.192345 22.516267 -17.790963 0.000001 -0.000000 0.000002 -14.169497 -30.307151 -1.122210 -71.231578 -18.035475 -64.526593 -49.815240 10.734206 -1.699926 0.000003 -0.000001 0.000001 33.271211 11.986136 -30.776645 38.293801 19.013298 -73.439423 45.326361 -18.579300 -23.975781 0.000000 -0.000003 -0.000001 -23.932172 22.639594 82.396957 -53.452801 -7.872392 32.525429 44.512305 -30.272928 -1.090985 -0.000003 -0.000002 -0.000001 2.504855 -1.259472 -49.910610 -20.869027 -26.753793 39.948305 33.518023 10.369273 -24.805514 0.000001 0.000001 0.000003 
27.557339 43.254631 -28.374138 0.786686 14.953839 13.267910 5.012837 4.564212 -21.216734 -1.382483 3.700728 -11.471088 11.723995 -15.048527 3.289579 10.265303 22.686034 -18.159106 0.000000 -0.000001 0.000002 -14.096243 -30.377147 -1.404155 -70.965324 -17.760526 -64.753526 -49.464817 11.429960 -3.144363 0.000001 0.000000 -0.000000 33.009423 12.130482 -30.785309 37.537299 19.205331 -73.398797 45.670535 -19.107534 -25.317501 0.000000 0.000002 -0.000001 -24.125109 22.552928 81.886236 -54.403485 -8.535261 33.513676 45.362261 -31.215088 -1.414745 -0.000002 -0.000003 0.000000 1.833368 -0.705545 -50.162972 -21.570951 -27.578371 40.023160 34.459752 10.822252 -24.021144 0.000001 0.000003 0.000001 
27.537849 43.159008 -28.611195 0.669267 15.178444 13.205729 5.367185 4.537080 -20.917198 -1.386486 3.611167 -11.338613 11.792063 -14.901900 3.212814 10.191193 22.626690 -18.409568 0.000002 0.000001 0.000002 -13.775882 -31.107591 -1.411335 -71.565411 -17.837425 -64.645350 -49.959972 11.176649 -3.501283 0.000003 -0.000001 0.000002 32.814561 12.185374 -30.612775 37.343212 18.818150 -72.388244 45.834965 -19.120696 -26.972157 0.000002 -0.000001 0.000000 -24.151942 22.606145 82.009262 -54.756797 -8.922858 33.957399 45.508553 -31.379142 -1.527464 -0.000003 0.000006 0.000001 0.836693 0.194715 -50.375640 -21.932974 -28.068261 40.130616 33.666692 10.135861 -26.112870 0.000000 0.000000 0.000006 
27.525238 43.062950 -28.848228 0.988298 15.085067 13.453867 5.022718 4.593744 -21.054376 -1.069098 3.829316 -11.287446 11.455212 -14.859070 3.058823 10.158469 22.718731 -18.621515 0.000004 0.000001 0.000000 -13.823002 -31.038391 -1.678320 -71.177606 -17.565927 -64.896407 -49.370475 11.856732 -5.335783 -0.000003 0.000000 -0.000001 32.739231 12.228039 -30.796988 36.651342 18.463794 -71.674571 44.780219 -19.259708 -28.867836 -0.000002 0.000004 -0.000001 -24.230907 22.671385 82.045421 -54.700632 -9.082457 34.143979 45.360516 -31.421834 -1.911656 -0.000007 -0.000002 -0.000003 1.334631 -0.329036 -50.504983 -22.822047 -28.817343 39.779056 33.257499 10.170230 -24.905825 -0.000001 0.000003 0.000001 
